<svg id="Layer_1" data-name="Layer 1" xmlns="http://www.w3.org/2000/svg" viewBox="0 0 112.59 112.59"><defs><style>.cls-1{fill:none;stroke:#fff448;stroke-miterlimit:10;}.cls-2{fill:#222;}.cls-3{fill:#ee794b;}.cls-4{fill:#74b1b2;}.cls-5{fill:#f09b9b;}</style></defs><title>levelup-Submark</title><circle class="cls-1" cx="56.3" cy="56.3" r="55.8"/><path class="cls-2" d="M19.81,56.57V54h1.5v4.29l-7.51,0V56.55Z"/><path class="cls-2" d="M17.89,41.8l-.78,2.46,1.43.45.74-2.36,1.43.45L20,45.16l1.44.46.78-2.47,1.43.46L22.33,47.7l-7.16-2.26,1.29-4.09Z"/><path class="cls-2" d="M20,33.92l1.16-1.55,5.09,1.45-2.82-4.48,1.15-1.55,4.13,7-.8,1.08Z"/><path class="cls-2" d="M35.16,21.11,33,22.56l.83,1.24,2-1.39.85,1.24L34.7,25l.84,1.25,2.14-1.45.85,1.25L35,28.5l-4.22-6.22,3.56-2.41Z"/><path class="cls-2" d="M45.62,21.41l2.48-.74.43,1.44L44.4,23.34l-2.13-7.21,1.64-.49Z"/><path class="cls-3" d="M56.65,14.82l-.85,1H54.33l1.91-2.13h.84l1.86,2.16H57.47Z"/><path class="cls-4" d="M71.15,21.58c-.59,1.76-1.86,2.33-3.68,1.72S65,21.46,65.59,19.7l1.55-4.59,1.63.54-1.39,4.12C67,21,67.22,21.43,68,21.7s1.28,0,1.68-1.15l1.39-4.11L72.7,17Z"/><path class="cls-5" d="M82.78,23.05a2.26,2.26,0,0,1,.58,3.41,2.34,2.34,0,0,1-3.51.31L79,26.13l-1.72,2.19L76,27.26l4.65-5.9Zm-2.51,2.31c.53.41,1.17.63,1.64,0s.12-1.18-.41-1.6l-.38-.3-1.23,1.57Z"/></svg>