<svg id="Layer_1" data-name="Layer 1" xmlns="http://www.w3.org/2000/svg" viewBox="0 0 122.75 15"><defs><style>.cls-1{fill:#222;}.cls-2{fill:#eb794b;}.cls-3{fill:#74aeaf;}.cls-4{fill:#fff148;}</style></defs><title>LevelUp-Logo</title><path class="cls-1" d="M3.3,11.84h5v2.9H0V.26H3.3Z"/><path class="cls-1" d="M23.46,3.16h-5V6h4.77V8.93H18.47v2.91h5v2.9H15.17V.26h8.29Z"/><path class="cls-1" d="M29.07.26h3.72l3.65,9.51L40.09.26h3.72L37.74,14.74h-2.6Z"/><path class="cls-1" d="M57.91,3.16h-5V6H57.7V8.93H52.93v2.91h5v2.9H49.63V.26h8.28Z"/><path class="cls-1" d="M68.37,11.84h5v2.9H65.07V.26h3.3Z"/><path class="cls-2" d="M83.54,2.21,81.93,4.12H79.1L82.73,0h1.62L88,4.12H85.15Z"/><path class="cls-3" d="M105.33,9.6c0,3.58-2,5.4-5.65,5.4S94,13.18,94,9.6V.26h3.3V8.63c0,2.42.74,3.12,2.35,3.12s2.35-.7,2.35-3.12V.26h3.3Z"/><path class="cls-4" d="M117.8.26c2.83,0,5,1.46,5,4.46s-2.12,4.65-5,4.65h-2v5.37h-3.3V.26Zm-1,6.48c1.3,0,2.53-.44,2.53-1.92s-1.23-1.93-2.53-1.93h-.93V6.74Z"/></svg>